

Complete name                            : C:\Users\root\Desktop\Rampart.2011.DVDSCR.XviD.ANALOG\R.2011.SCR.ANALOG.avi

Format                                   : AVI

Format/Info                              : Audio Video Interleave

File size                                : 1.39 GiB

Duration                                 : 1h 48mn

Overall bit rate                         : 1 836 Kbps

Movie name                               : R.2011.SCR.ANALOG

Writing application                      : VirtualDub build 32842/release

Copyright                                : ANALOG

Encoded by                               : Cooperman



Video

ID                                       : 0

Format                                   : MPEG-4 Visual

Format profile                           : Advanced Simple@L5

Format settings, BVOP                    : 1

Format settings, QPel                    : Yes

Format settings, GMC                     : No warppoints

Format settings, Matrix                  : Default (H.263)

Muxing mode                              : Packed bitstream

Codec ID                                 : XVID

Codec ID/Hint                            : XviD

Duration                                 : 1h 48mn

Bit rate                                 : 1 696 Kbps

Width                                    : 688 pixels

Height                                   : 288 pixels

Display aspect ratio                     : 2.40:1

Frame rate                               : 29.970 fps

Color space                              : YUV

Chroma subsampling                       : 4:2:0

Bit depth                                : 8 bits

Scan type                                : Progressive

Compression mode                         : Lossy

Bits/(Pixel*Frame)                       : 0.286

Stream size                              : 1.28 GiB (92%)

Writing library                          : XviD 64



Audio

ID                                       : 1

Format                                   : MPEG Audio

Format version                           : Version 1

Format profile                           : Layer 3

Mode                                     : Joint stereo

Mode extension                           : MS Stereo

Codec ID                                 : 55

Codec ID/Hint                            : MP3

Duration                                 : 1h 48mn

Bit rate mode                            : Constant

Bit rate                                 : 128 Kbps

Channel(s)                               : 2 channels

Sampling rate                            : 44.1 KHz

Compression mode                         : Lossy

Stream size                              : 99.0 MiB (7%)

Alignment                                : Split accross interleaves

Interleave, duration                     : 33 ms (1.00 video frame)

Interleave, preload duration             : 500 ms

Writing library                          : LAME3.98.2

Language                                 : English

Sample                                   : Yes! check it!! thats what its for!!

source file                              : Rampart.DVD5.DVD-Screener.NTSC THANX :)

NOTES.....

Ok the source screener was hugely interlaced and had lines over the video this was a huge pain in the backside to remove so much so i ran 9 filters over the file (i whont bore you with what thay are) enyway all the lines are gone as a result the picture isent as sharp as i woud of liked but perfictly whachable..yes it has mp3 insted of ac3 get over it! i dident see a point of adding ac3 @ a low level it just defeates the point..enyway take it or leave it is free!!

lets some some thanks in the coments insted of troglodytes complaining about a free download!! :P 



As humans, we perceive the world in analog. Everything we see and hear is a continuous transmission of information to our senses.

ANALOG.P.2.P@HUSHMAIL.COM

GREATINGS TO ALL THE P2P PLACES I LURK AT!!
